<svg width="15" height="17" viewBox="0 0 15 17" fill="none" xmlns="http://www.w3.org/2000/svg">
<path d="M6.75 15.546C7.2141 15.8139 7.7859 15.8139 8.25 15.546L13.5 12.546C13.9636 12.2783 14.2495 11.7838 14.25 11.2485V5.24846C14.2495 4.71311 13.9636 4.21864 13.5 3.95096L8.25 0.950962C7.7859 0.683013 7.2141 0.683013 6.75 0.950962L1.5 3.95096C1.03637 4.21864 0.750549 4.71311 0.75 5.24846V11.2485C0.750549 11.7838 1.03637 12.2783 1.5 12.546L6.75 15.546M7.5 15.7485V8.24846" stroke="#9CA3AF" stroke-width="1.5" stroke-linecap="round" stroke-linejoin="round"/>
<path d="M0.967529 4.49846L7.50003 8.24846L14.0325 4.49846M4.12503 2.45096L10.875 6.31346" stroke="#9CA3AF" stroke-width="1.5" stroke-linecap="round" stroke-linejoin="round"/>
</svg>
