<svg width="15" height="17" viewBox="0 0 15 17" fill="none" xmlns="http://www.w3.org/2000/svg">
<path d="M5.72067 2.33893C5.8063 1.43806 6.56287 0.75 7.4678 0.75C8.37273 0.75 9.12929 1.43806 9.21492 2.33893C9.26533 2.90889 9.59042 3.41848 10.086 3.70444C10.5816 3.99039 11.1855 4.01679 11.7042 3.77518C12.5264 3.4019 13.4976 3.71341 13.9493 4.49526C14.401 5.27711 14.1857 6.27411 13.4517 6.79993C12.9835 7.12847 12.7047 7.66457 12.7047 8.23656C12.7047 8.80854 12.9835 9.34464 13.4517 9.67318C14.1857 10.199 14.401 11.196 13.9493 11.9779C13.4976 12.7597 12.5264 13.0712 11.7042 12.6979C11.1855 12.4563 10.5816 12.4827 10.086 12.7687C9.59042 13.0546 9.26533 13.5642 9.21492 14.1342C9.12929 15.035 8.37273 15.7231 7.4678 15.7231C6.56287 15.7231 5.8063 15.035 5.72067 14.1342C5.67036 13.564 5.34516 13.0542 4.84935 12.7682C4.35354 12.4822 3.74941 12.456 3.23067 12.6979C2.40849 13.0712 1.43724 12.7597 0.985537 11.9779C0.533834 11.196 0.749113 10.199 1.48317 9.67318C1.9514 9.34464 2.23014 8.80854 2.23014 8.23656C2.23014 7.66457 1.9514 7.12847 1.48317 6.79993C0.750183 6.27388 0.535472 5.27777 0.986662 4.49646C1.43785 3.71516 2.40793 3.40325 3.22992 3.77518C3.74859 4.01679 4.35247 3.99039 4.84808 3.70444C5.34368 3.41848 5.66877 2.90889 5.71917 2.33893" stroke="#9CA3AF" stroke-width="1.5" stroke-linecap="round" stroke-linejoin="round"/>
<path d="M5.21753 8.23694C5.21753 9.47875 6.22572 10.4869 7.46753 10.4869C8.70934 10.4869 9.71753 9.47875 9.71753 8.23694C9.71753 6.99513 8.70934 5.98694 7.46753 5.98694C6.22572 5.98694 5.21753 6.99513 5.21753 8.23694V8.23694" stroke="#9CA3AF" stroke-width="1.5" stroke-linecap="round" stroke-linejoin="round"/>
</svg>
